<mxfile host="app.diagrams.net" agent="Mozilla/5.0 (Macintosh; Intel Mac OS X 10_15_7) AppleWebKit/605.1.15 (KHTML, like Gecko) Version/18.2 Safari/605.1.15" version="26.0.15">
  <diagram id="6a731a19-8d31-9384-78a2-239565b7b9f0" name="Page-1">
    <mxGraphModel dx="1434" dy="947" grid="0" gridSize="10" guides="1" tooltips="1" connect="1" arrows="1" fold="1" page="1" pageScale="1" pageWidth="1169" pageHeight="827" background="none" math="0" shadow="0">
      <root>
        <mxCell id="0" />
        <mxCell id="1" parent="0" />
        <mxCell id="fXm4gH-iVKr-M4FYp6Ai-1786" value="" style="whiteSpace=wrap;html=1;fillColor=#60a917;strokeColor=#2D7600;fontColor=#ffffff;" vertex="1" parent="1">
          <mxGeometry x="510" y="250" width="120" height="60" as="geometry" />
        </mxCell>
        <mxCell id="fXm4gH-iVKr-M4FYp6Ai-1793" style="edgeStyle=orthogonalEdgeStyle;rounded=0;orthogonalLoop=1;jettySize=auto;html=1;" edge="1" parent="1">
          <mxGeometry relative="1" as="geometry">
            <mxPoint x="570" y="408" as="targetPoint" />
            <mxPoint x="570" y="313" as="sourcePoint" />
          </mxGeometry>
        </mxCell>
        <mxCell id="fXm4gH-iVKr-M4FYp6Ai-1789" value="&lt;span style=&quot;color: rgb(250, 250, 250);&quot;&gt;&lt;b&gt;Frontend (Next.JS)&lt;/b&gt;&lt;/span&gt;" style="text;html=1;align=center;verticalAlign=middle;whiteSpace=wrap;rounded=0;" vertex="1" parent="1">
          <mxGeometry x="540" y="265" width="60" height="30" as="geometry" />
        </mxCell>
        <mxCell id="fXm4gH-iVKr-M4FYp6Ai-1796" value="" style="edgeStyle=orthogonalEdgeStyle;rounded=0;orthogonalLoop=1;jettySize=auto;html=1;" edge="1" parent="1">
          <mxGeometry relative="1" as="geometry">
            <mxPoint x="570" y="141" as="sourcePoint" />
            <mxPoint x="570" y="247" as="targetPoint" />
          </mxGeometry>
        </mxCell>
        <mxCell id="fXm4gH-iVKr-M4FYp6Ai-1794" value="User" style="shape=umlActor;verticalLabelPosition=bottom;verticalAlign=top;html=1;outlineConnect=0;" vertex="1" parent="1">
          <mxGeometry x="555" y="59" width="30" height="60" as="geometry" />
        </mxCell>
        <mxCell id="fXm4gH-iVKr-M4FYp6Ai-1798" value="" style="rounded=1;whiteSpace=wrap;html=1;" vertex="1" parent="1">
          <mxGeometry x="510" y="410" width="120" height="60" as="geometry" />
        </mxCell>
        <mxCell id="fXm4gH-iVKr-M4FYp6Ai-1799" value="Backend (FastAPI)" style="text;html=1;align=center;verticalAlign=middle;whiteSpace=wrap;rounded=0;" vertex="1" parent="1">
          <mxGeometry x="540" y="425" width="60" height="30" as="geometry" />
        </mxCell>
        <mxCell id="fXm4gH-iVKr-M4FYp6Ai-1801" value="Voice API (Google TTS)" style="ellipse;whiteSpace=wrap;html=1;" vertex="1" parent="1">
          <mxGeometry x="739" y="400" width="120" height="80" as="geometry" />
        </mxCell>
        <mxCell id="fXm4gH-iVKr-M4FYp6Ai-1802" value="Transcription API (OpenAI Whisper)" style="ellipse;whiteSpace=wrap;html=1;" vertex="1" parent="1">
          <mxGeometry x="297" y="403" width="120" height="80" as="geometry" />
        </mxCell>
        <mxCell id="fXm4gH-iVKr-M4FYp6Ai-1804" value="" style="endArrow=classic;startArrow=classic;html=1;rounded=0;" edge="1" parent="1">
          <mxGeometry width="50" height="50" relative="1" as="geometry">
            <mxPoint x="419" y="444" as="sourcePoint" />
            <mxPoint x="510" y="444" as="targetPoint" />
          </mxGeometry>
        </mxCell>
        <mxCell id="fXm4gH-iVKr-M4FYp6Ai-1805" value="" style="endArrow=classic;startArrow=classic;html=1;rounded=0;" edge="1" parent="1">
          <mxGeometry width="50" height="50" relative="1" as="geometry">
            <mxPoint x="630" y="441" as="sourcePoint" />
            <mxPoint x="738" y="441" as="targetPoint" />
          </mxGeometry>
        </mxCell>
      </root>
    </mxGraphModel>
  </diagram>
</mxfile>
